<?xml version="1.0" encoding="utf-8"?>
<!-- Generator: Adobe Illustrator 24.2.0, SVG Export Plug-In . SVG Version: 6.00 Build 0)  -->
<svg version="1.1" id="logo" xmlns="http://www.w3.org/2000/svg" xmlns:xlink="http://www.w3.org/1999/xlink" x="0px" y="0px"
	 viewBox="0 0 160 160" style="enable-background:new 0 0 160 160;" xml:space="preserve">
<style type="text/css">
	.st0{fill:none;stroke:#03AAF9;stroke-miterlimit:10;}
	.st1{fill:#03AAF9;}
</style>
<polygon id="outline" class="st0" points="27.5,116.3 27.5,110.2 35.8,109 43.1,55.4 33.6,54 33.6,48 63.6,48 76.3,91.1 77.9,99.4 
	79.3,91.1 91.1,48 121.3,48 121.3,54 111,55.4 119.3,108.9 127.5,110.2 127.5,116.3 96,116.3 96,110.2 104,109 99.5,69.7 97.5,52.8 
	94.5,66.3 80.5,117 70.5,117 54.9,68.9 50.3,53 49.5,69.6 45.6,109 55.1,110.2 55.1,116.3 "/>
<path id="full" class="st1" d="M32.5,111.3v-6.1l8.3-1.2l7.3-53.6L38.5,49v-6h30.1l12.7,43.1l1.7,8.3l1.4-8.3L96.1,43h30.2v6
	L116,50.4l8.3,53.5l8.2,1.3v6.1H101v-6.1l7.9-1.2l-4.4-39.3l-2-16.7l-3,13.3l-14,50.7h-9.9L59.9,63.9L55.3,48l-0.9,16.5l-3.9,39.3
	l9.5,1.2v6.1H32.5V111.3z"/>
</svg>
