<svg version="1" xmlns="http://www.w3.org/2000/svg" width="2133.333" height="2133.333" viewBox="0 0 1600.000000 1600.000000"><path d="M385 452.5V475h-54v34.8c0 27.2.3 34.9 1.3 34.9 1.6.1 9.8 1.3 11.7 1.8.8.2 3.8.6 6.5 1 2.8.3 6.1.8 7.5 1 4.2.6 11.3 1.6 14 2 6 .9 18.6 2.7 20 3 .8.1 4 .6 7 1.1 3 .4 5.7.8 6 .9.3.1 5.1.7 10.7 1.5 5.6.7 10.1 1.6 9.9 1.9-.2.3-.7 3.7-1.1 7.4-.3 3.7-.8 7.6-1 8.6-.2 1-.6 4.2-1 7.1-.4 2.9-.8 6-1 6.9-.1.9-.6 4.3-1 7.6-.4 3.2-.8 6.7-1 7.6-.2.9-.6 4-1 6.9-.4 2.9-.8 6.1-1 7-.2.9-.6 4.1-.9 7.1-.3 3-.8 6.3-1 7.5-.2 1.2-.7 4.5-1.1 7.5-.3 3-.8 6.1-1 6.9-.2.8-.6 4-1 7.1-.3 3.1-.7 6.5-.9 7.6-.2 1-.7 4.6-1.1 7.8-.4 3.3-.9 6.8-1.1 7.9-.2 1-.6 4.4-1 7.5-.3 3.1-.8 6.5-1 7.6-.3 1.1-.7 4-.9 6.5-.3 2.5-1 7.6-1.6 11.5-.6 3.8-1.2 8.6-1.4 10.5-.4 3.3-1.7 12.9-2 14-.1.3-.5 3.4-.9 7-.5 3.6-1 7.2-1.1 8-.2.8-.6 3.7-.9 6.5-1 7.5-1.7 12.7-2.1 15.5-.2 1.4-.9 6.3-1.5 11s-1.3 9.6-1.5 11c-.8 5.9-2.1 14.9-2.9 21.7-.6 3.9-3.6 26.3-4.1 29.3-.2 1.4-.6 4.3-.9 6.5-.4 2.2-.8 5.8-1.1 8-.2 2.2-1.1 8.8-1.9 14.6-.9 5.9-1.8 12.4-2 14.5-.3 2.2-1.2 8.8-2 14.9-2.4 16-2.3 15.9-4.1 29.5-.9 6.9-1.8 13.6-2 15-.2 1.4-.7 4.5-1 7-.3 2.5-.8 5.6-1 7-.2 1.4-.6 5-1 8-.3 3-.8 6.6-1.1 8-.2 1.4-.6 3.8-.8 5.5-1.7 12.7-4.8 35.5-5.1 37.6-.3 1.4-.7 4.3-1 6.5-2.1 16.9-2.7 19.4-4.6 19.4-1.1 0-2.1.1-2.4.2-.2 0-6.9 1.1-14.7 2.2l-14.3 2.1-.5 19-.5 19-7.5 1.1c-4.1.7-9.7 1.5-12.5 1.8-4.7.6-7 1-13.9 2.1-1.6.2-4.8.7-7 1-2.3.4-5 .8-6.1 1-1.1.2-3.2.4-4.7.4l-2.8.1v71h285.5v-55.5l22.7-.3 22.7-.2-.2-30.8c-.1-19.6-.6-30.7-1.2-30.8-2.1-.1-15.1-1.6-17-2-1.1-.2-4.7-.7-8-1-3.3-.3-6.7-.7-7.5-.9-.8-.3-5.5-.9-10.5-1.5-4.9-.5-10.3-1.2-12-1.4-1.6-.2-5.5-.7-8.5-1.1-3-.3-6.6-.8-8-1-1.4-.2-4.7-.6-7.5-1-2.7-.3-5.9-.8-7-1-1.1-.2-3.4-.4-5.1-.4l-3.1-.1.8-5.8c.4-3.1 1-9.1 1.3-13.2.4-4.1.9-9.3 1.1-11.5.2-2.2.7-6.7 1-10 .3-3.3.8-7.8 1-10 .4-3.6 1-9.1 2-20 1.3-14.1 1.6-17.4 2-20.5.2-1.9.6-6 .9-9l1.1-11c.3-3 .7-7.5 1-10 .3-2.5.7-7 1-10 .3-3 .7-7.5 1-10 .2-2.5.7-7.4 1-11 .4-3.6.8-7.6 1-9 .2-1.4.6-6.1 1-10.4.4-4.3.8-8.7 1-9.7.2-1.1.7-5.6 1-10 .4-4.5.8-8.9 1-9.8.1-.9.6-5.4 1-10.1.4-4.7.9-9.4 1.1-10.4.2-1 .6-5.7 1-10.4.3-4.7.7-9.2.9-10.1.2-.9.6-5.4 1-10 .4-4.7.9-9.4 1.1-10.5.2-1.1.6-5.2.9-9.1.3-3.8.8-8.4 1-10.1.2-1.6.6-5.9 1-9.5.3-3.5.8-8 1-9.9.3-1.9.7-6.9 1.1-11 .7-9 1.1-14 1.9-20 .3-2.5.8-7.4 1.1-11 .3-3.6.7-7.6.9-9 .2-1.4.4-3.2.5-4 0-.8 1 1.4 2.1 5s4.7 14.6 7.9 24.5 11.3 34.9 18 55.5c6.7 20.6 15 46.3 18.5 57 3.5 10.7 12.1 37 19 58.5 7 21.4 13.9 42.8 15.5 47.5 1.5 4.7 7.4 22.7 13 40s12.8 39.6 16 49.5c12.9 39.7 18 55.5 21 65 1.7 5.5 3.5 10.9 4 12 .5 1.1 4.5 13.5 9 27.5s10 31 12.2 37.7l4 12.3H808.9l1.6-5.8c.9-3.1 2.5-8.9 3.5-12.7 1.1-3.9 3.3-11.7 4.9-17.5 1.6-5.8 3.4-12.4 4.1-14.7l1.1-4.2 15.6-.3 15.7-.3 6.3-23c3.5-12.7 7.9-28.6 9.8-35.5 10-36.3 15.7-56.8 16.5-59.5 1.2-3.6 7-24.8 7.5-27.2.4-1.7 16.5-59.9 27.6-99.8 2.8-9.9 5.2-18.7 5.4-19.5.4-1.3 2.7-9.9 7-25.5.8-2.8 4.1-14.9 7.5-27 3.4-12.1 6.6-23.8 7.1-26 .5-2.2 1.6-6 2.4-8.5.7-2.5 3-10.6 5-18 2.1-7.4 5.7-20.7 8.2-29.5 2.5-8.8 4.6-16.7 4.8-17.5 1.5-6.7 14.4-51.2 14.5-50 .1.8.3 2.2.4 3 .4 1.9 1.6 11.3 2.1 16.5.5 4.6 1.5 12.8 2 16.5.2 1.4.7 5.4 1 9 .3 3.6.8 7.6 1 9 .4 2.4 1 7.7 2 17 .2 2.5.7 6.7 1 9.5 1 8.3 1.4 11.7 2 17.5.7 6.9 1.8 16.2 3 26.5.3 2.2.7 6.8 1 10.2.3 3.4.7 7 .9 8 .2 1 .7 5.2 1.1 9.3.4 4.1.9 8.3 1.1 9.3.2 1 .6 4.4.9 7.5.3 3.1.8 7.6 1 9.9.6 4.9 1.2 10.4 2 18.3.3 3 .8 6.6 1 8 .2 1.4.6 5.2 1 8.5 1.3 12.9 2.6 24.3 3 26.5.2.9.6 5 1 9.1s.8 8.7 1 10.4c.2 1.6.6 5.2.9 8 .8 7.2 1.4 12.4 2 17 .3 2.2 1 8.7 1.6 14.5.6 5.8 1.3 11.8 1.5 13.5.2 1.6.7 5.2 1 8 .3 2.7.7 6.8 1 9 .5 4.6 1.1 10.3 2 19 .4 3.3.8 7 1 8.3.2 1.3.7 5.3 1.1 9 .3 3.7.8 7.8 1 9.2.2 1.4.6 5.4.9 9 .3 3.6.8 7.7 1.1 9.1.4 2.5.1 2.7-3.9 3.3-9.3 1.4-13.3 1.9-14.3 1.9-.8 0-1.1 5.6-1.1 18.4 0 10.1-.3 18.6-.6 18.9-.6.6-12.4 2.7-20.8 3.8-1.9.2-6.2.9-9.5 1.5-3.2.6-8.4 1.3-11.4 1.6-3 .4-7.1 1-9 1.4l-3.5.7-.1 35.2-.2 35.2H1280v-55h45l-.2-30.7-.3-30.7-4.4-.8c-4.8-.8-11.1-1.8-15.1-2.3-2.6-.4-7.7-1.2-12-2-1.4-.2-4.3-.7-6.5-1-2.3-.3-5.2-.8-6.5-1-1.4-.3-4.3-.7-6.5-1-2.2-.3-6.7-1-10-1.6-3.3-.6-6.9-1.2-8-1.4-9.6-1.3-12-1.7-12.3-2-.3-.2-2.9-16-3.7-22.4-.3-2-.7-4.5-.9-5.6-.2-1.1-.7-4.5-1.2-7.5-.4-3-.8-5.7-.9-6-.1-.3-.5-3-.9-6-.5-3-1-6.4-1.2-7.5-.2-1.1-.7-4-1-6.5-.3-2.5-.8-5.4-1-6.5-.2-1.1-.6-3.8-.9-6-.3-2.2-.7-5.1-1-6.5-.3-1.4-1.2-7.2-2.1-13-.8-5.8-1.7-11.2-1.9-12-.2-.8-.7-3.8-1-6.5-.3-2.8-1-7.3-1.5-10-.5-2.8-1.2-6.7-1.5-8.8-1-7.2-3.4-23.1-4-26.7-.7-4.3-2.4-15.3-3-19.5-.4-2.2-1.3-7.8-2-12.5-.8-4.7-1.7-11-2.1-14-.3-3-.8-5.8-1-6.2-.2-.3-.7-2.8-1-5.5-.3-2.6-.7-5.5-.9-6.3-.2-.8-.7-3.5-1-6-.3-2.5-.8-5.9-1.1-7.5-1-5.9-1.3-8.2-3.8-24.5-1.4-9.1-2.8-17.4-3-18.5-.3-1.9-1.2-8-2.2-15.5-.3-1.9-.9-5.8-1.4-8.5-.5-2.8-1.2-6.8-1.5-9-.3-2.2-.7-5.1-1-6.5-.3-1.4-.7-4.1-.9-6-.5-4-1-6.7-3.6-23.5-1.1-6.6-2.6-16.7-3.5-22.5-.9-5.8-2.7-17.5-4.1-26-2.4-15.4-3.1-19.8-3.9-25.5-.5-3.6-1.6-10.3-2.1-13-.2-1.1-1.1-6.7-1.9-12.5-.9-5.8-2.2-14.3-3-19-.8-4.7-1.7-10.5-2-13-.3-2.5-.8-5.2-1.1-6.2-.6-2.1.1-2.5 6.6-3.3 3-.4 14.1-1.8 24.5-3.3l19-2.7.1-23.8c.1-13 .3-23.9.5-24.1.2-.2 3.6-.7 7.4-1.1 3.9-.4 7.2-.9 7.5-1 .3-.2 3.5-.7 7-1 3.6-.4 6.7-.8 7-1 .5-.3 12.3-1.7 14.8-1.8.9 0 1.2-6.8 1.2-30.4V430H961.1l-1.1 4.2c-.7 2.4-2.9 10.6-5 18.3-2.1 7.7-4.3 15.9-5 18.2l-1.1 4.3h-41.5l-3.8 13.7c-2.1 7.6-4.4 16.3-5.3 19.3-.8 3-1.7 6.2-1.8 7-.2.8-4.9 17.9-10.5 38-5.5 20.1-10.2 37.2-10.4 38-.9 3.5-7.9 29-9.6 35-1 3.6-4.9 17.5-8.5 31-3.6 13.5-7.5 27.4-8.5 31-1 3.6-3.4 12.3-5.4 19.5-9.7 35.7-12.8 47-13.1 47.5-.2.4-.6 1.8-.9 3.3-.4 2.3-3.3 12.9-11.3 41.2-1.4 4.9-2.7 9.9-2.9 11-.9 4.4-8.3 30-8.5 29.2-.3-1.5-.6-2.2-1.2-3.7s-16.5-55.2-17.1-58c-.2-.8-2.3-7.8-4.6-15.5s-4.6-15.4-5-17c-.4-1.7-5.6-19.2-11.5-39-22.8-77.1-25.8-87.1-26.5-90-.4-1.7-2.3-8.2-4.3-14.5-1.9-6.3-3.7-12.4-4-13.5-.3-1.1-1.9-6.5-3.5-12-13.1-44.2-32.3-109-36.3-123-2.7-9.4-5.4-18.5-6-20.3l-1.1-3.2H385v22.5zm0 34.9c0 3.3-2.9 2.6 36 8.2 1.9.2 4.6.6 6 .9 3.1.5 16.4 2.4 20.5 3 1.7.2 9.5 1.3 17.5 2.4 7.9 1.2 14.8 2.1 15.3 2.1s.6 2.1.2 4.7c-1 7.5-1.3 9.5-1.9 14.5-.3 2.6-1 7.6-1.5 11-.5 3.5-1.2 8.8-1.6 11.8-.3 3-.8 6.6-1.1 8-.2 1.4-.6 3.8-.8 5.5-1.3 10.3-1.8 14-2.1 15.4-.1.9-.6 4.1-1 7.1-.3 3-.8 6.6-1 8-.2 1.4-.7 4.5-1 7-.3 2.5-.8 5.6-1 7-.2 1.4-.6 4.5-1 7-.3 2.5-.8 6.3-1.1 8.5-.9 6.4-1.2 8.7-1.9 14.5-.4 3-.9 6.2-1 7.1-.3 1.4-.7 4.5-2 14.7-.2 1.8-.6 4.5-.9 6-.3 1.5-.8 4.9-1.1 7.7-.3 2.7-.7 6.1-.9 7.5-.4 2.3-1.1 7-2.2 16-.6 5-1.4 11.1-1.9 14-.2 1.4-.7 4.3-.9 6.5-.3 2.2-.7 5.6-1 7.5-.3 1.9-1 7.1-1.6 11.5-.6 4.4-1.3 9.1-1.5 10.5-.2 1.4-.6 4.7-1 7.5-.3 2.7-1.3 9.7-2.1 15.5-.8 5.8-1.7 12.3-2 14.5-.3 2.2-.9 6.7-1.4 10-.5 3.3-1.2 8.7-1.5 12-.4 3.3-.8 6.7-1 7.5-.2.8-.7 3.9-1 6.9-.4 3-.8 6.1-1 7-.1.9-.6 4.1-1 7.1-.3 3-.8 6.6-1 8-.9 6.1-2.6 18.8-3 22-.3 1.9-.7 4.6-1 6-.2 1.4-.7 4.7-1 7.5-.3 2.7-.8 6.1-1 7.5-.2 1.4-.6 4.7-1 7.5-1.1 9.3-2.4 18.5-3 21.5-.2 1.4-.7 4.7-1 7.5-.4 2.7-.8 6.3-1.1 8-.2 1.6-.6 5.2-.9 8-.4 2.7-.8 5.7-1 6.5-.2.8-.7 4-1 7-.3 3-.8 6.6-1 8-.5 3.2-1.1 8-2 15-.4 3-.9 6.2-1 7-.1.8-.6 4-1 7s-.9 6.3-1.1 7.4c-.2 1-.6 4.4-1 7.5-.3 3.1-.8 6.3-.9 7.2-.2.9-.6 4-1 7-.7 5.6-.9 7.2-2 14.9-1.1 7.5-1.6 10.4-1.8 10.6-.1.1-2.6.5-5.6.9-3 .4-6.3.9-7.5 1.1-1.2.2-4.1.6-6.6.9-2.5.3-7.2 1-10.5 1.5-8.2 1.3-8.7 1.3-8.1-.8.3-.9.8-4.1 1.1-7.1.4-3 .8-6.2 1-7.1.2-.9.6-4.1 1-7.1.3-3 .8-6.5 1-7.9.7-4.4 1.5-10.6 2-14.5.3-2.1.7-5 1-6.4.2-1.4.7-5 1-8 .4-3 .8-6.2 1-7.1.2-.9.6-4.1 1-7.1.3-3 .8-6.7 1.1-8.2.3-1.5.7-4.5.9-6.6.2-2.1.5-5.2.8-6.7.4-1.6.9-5.2 1.2-7.9.3-2.8.8-6.1 1-7.5.2-1.4 1.3-9.5 2.5-18 1.1-8.5 2.2-16.9 2.5-18.5.2-1.7.6-5 1-7.5.3-2.5 1-7.7 1.6-11.5.5-3.9 1.1-8.4 1.3-10 .9-6.7 3.7-27.2 4.1-29.5.3-1.4.7-4.9 1.1-7.8.3-2.9.7-6.1.9-7.1.2-1 .6-4.2 1-7.1.4-2.9.8-6.1 1-7.1.2-1 .7-4.9 1-8.6.4-3.7.9-7.1 1.1-7.4.2-.3.6-2.8.9-5.5.3-2.7.8-6.5 1-8.4.3-1.9 1-7.1 1.6-11.5.5-4.4 1.2-9.1 1.4-10.5.3-1.4.8-4.8 1.1-7.5.3-2.8 1-7.5 1.5-10.5s1.1-8 1.4-11.1c.3-3.1.7-6.5.9-7.5.7-3.7 2-13.2 3.1-21.9.3-2.8 1-7.5 1.5-10.5s1.2-8.2 1.5-11.5c.4-3.3.8-6.7 1-7.5.2-.8.7-4 1-7 .3-3 .8-6.6 1-8 .9-4.7 1.4-8.5 2-13.5.3-2.8.7-6.1 1-7.5.2-1.4.7-4.8 1-7.5.7-5.5 1.4-10.6 2.1-14.5.2-1.4.9-6.3 1.4-11 .6-4.7 1.3-9.6 1.5-11 .2-1.4.7-5 1-8 .4-3 .9-6.2 1-7 .2-.8.6-3.8.9-6.5.7-5.4 1.1-7.7 2.1-14.2.7-4.6.9-4.4-9-5.8-2.2-.3-5.1-.7-6.5-1-1.4-.2-4.5-.7-7-1-2.5-.3-5.4-.7-6.6-.9-1.2-.2-4.5-.7-7.4-1.1-2.9-.4-6.1-.8-7.1-1-.9-.2-3.9-.6-6.6-1-8.2-1.1-10.7-1.5-13.3-2-1.4-.2-4.1-.6-6-.9-1.9-.3-8.6-1.2-14.7-2.2l-11.3-1.7V485h44v2.4zm174 12.8c2.3 8.4 4.6 16.4 5.1 17.8.4 1.4 1.4 4.5 2 7 1.6 5.9 1.5 5.7 3.4 12 .9 3 2 7.1 2.5 9 .5 1.9 2.3 8.2 4 14 3.2 10.7 6.7 23 7.5 26.4.2 1 1.2 4.4 2.1 7.5.9 3.1 2 6.9 2.4 8.6.5 1.6 2.5 8.6 4.5 15.5s4.3 14.7 5 17.5c.8 2.7 3.8 12.4 6.8 21.5s11.2 34 18.2 55.5c7 21.4 14.9 45.5 17.5 53.5 2.6 8 7.5 23 10.9 33.5 9.2 28.1 39 119.1 41.1 125.5 1 3 7.5 23 14.5 44.5 7 21.4 14.8 45.5 17.5 53.5 2.6 8 9.8 30 16 49 6.1 19 12.2 37.4 13.5 41l2.3 6.5 28.9.3 29 .2-6.2 22.3-6.1 22.2-46.5.3-46.5.2-4.4-13.7c-5.1-16.2-12.5-38.9-24.1-74.3-4.6-14-8.3-25.7-8.4-26 0-.3-1.2-4.1-2.7-8.5-1.4-4.4-7.9-24.2-14.3-44s-12-37.1-12.5-38.5c-.5-1.4-3.8-11.7-7.5-23-11.4-35.2-18-55.6-26.3-81-4.4-13.5-12.4-38-17.7-54.5-5.3-16.5-11.2-34.5-13-40-1.8-5.5-7.7-23.5-13-40s-10.3-31.8-11-34c-.7-2.2-3.1-10.6-5.4-18.6-4.4-15.7-4.3-13.8-2.6-39.4.2-3.9.7-12.4 1-19 .3-6.6.7-15.2 1-19 .3-3.9.7-11.3 1-16.5 1-20.5 1.6-31.5 2-37.8.3-3.7.7-11.9 1.1-18.2.3-6.3.7-13.5.9-16 .1-2.5.3-7.5.4-11.3 0-3.7.5-6.7 1-6.7.4 0 2.7 6.9 5.1 15.2zm387-15c0 .2-1.2 4.6-2.6 9.8-1.4 5.2-2.7 10.2-2.9 11-.2.8-2.2 8.2-4.5 16.5-2.2 8.2-6.8 24.9-10.1 37-3.2 12.1-6.4 23.6-6.9 25.5-3.2 11.4-7 25.6-9 33-1.2 4.7-2.6 9.8-3.1 11.5-1.5 4.9-19.1 69.8-19.4 71.8-.2 1-.9 3.2-1.5 5-.5 1.8-4.4 15.8-8.6 31.2-10.5 39.2-13.8 51.1-17.9 66-2 7.1-3.8 13.8-4 14.9-.3 1-1.2 4.4-2.1 7.5-.9 3.1-1.7 6.3-1.9 7.2-.2.8-2 7.6-4 15-2.1 7.4-3.9 14.3-4 15.4-.2 1.1-.6 3.3-.8 5-.9 5.3-2.7 15.9-3.1 18.1-.2 1.2-.7 3.9-1 6-.4 2.2-1.1 6.4-1.6 9.4s-1.2 7.3-1.5 9.5c-.4 2.2-.8 4.7-1 5.5-.3 1.3-1.2 6.7-2 12-.1.8-.6 3.7-1 6.5-.5 2.7-.8 5.4-.6 6 .1.7-.1.7-.8 0-.6-.6-1.2-2.6-1.5-4.5-.4-2.7-4.4-22.4-7.1-35-.2-1.2-2.6-12.4-7-33.4-1.8-8.8-1.6-10.5 2-23.7 6.5-23.6 8.6-31.2 10.5-38.4 1-3.9 2.5-9.5 3.3-12.5 3.9-13.5 12.9-46.7 13.2-48.3.2-1 .9-3.2 1.5-5 .8-2.5 20.9-75.4 22.5-81.7 1-4 3.5-13.1 4.9-18.1.9-3.1 1.9-6.6 2.1-7.8.3-1.1.7-2.9 1-3.9 1.7-6.1 4.7-17.1 5.1-19.1.3-1.4.7-2.8 1-3.3.3-.4.7-1.6.9-2.5.2-1 2-7.7 4-14.8 2-7.2 3.8-13.7 4-14.5.3-1.4 22.9-84.2 24.1-88.3.5-1.5 2.1-1.7 16-1.7 8.5 0 15.4.1 15.4.2zm80.5 4.5c.7 5.4 1.2 9.5 2 16.8.3 2.7 1 8.4 1.5 12.5s1.1 9.3 1.4 11.5c.6 5.6 1.6 13.4 2.2 17.5.3 1.9.7 6 1 9 .3 3 .7 6.6.9 8 .2 1.4.7 5.2 1 8.5.4 3.3.8 7.1 1 8.5.2 1.4.6 5 1 8 1.3 11.3 1.6 13.6 2 16 .2 1.4.7 5.2 1 8.5.3 3.3.7 7.1 1 8.5.2 1.4.7 5.2 1 8.5.3 3.3.8 7.1 1 8.5.2 1.4.6 5.2 1 8.5 1.3 11.7 1.5 14 2 17.5.2 1.9.7 6 1 9 .7 6.7 1.2 11 2 17.5.3 2.7.8 7.1 1 9.8.2 2.6.6 6 .9 7.5.3 1.5.8 5.8 1.1 9.7.3 3.8.7 8.3 1 10 .2 1.6.7 5.1 1 7.7.3 2.7.7 6.9 1 9.5.3 2.7.8 6.1 1 7.8.3 1.6.7 6.1 1 10 .3 3.8.8 8.1 1 9.5.2 1.4.7 5 1 8 .3 3 .8 7.1 1 9 .2 1.9.7 5.7 1 8.5.5 5 4.1 37.4 5 45 .5 4.6 2.3 20.9 3 27.5.6 5.6 1.5 13.7 2 17 .2 1.4.6 5.4 1 9 .3 3.6.8 7.6 1 9 .3 1.4.7 5.4 1 9 .3 3.6.7 7.6 1 9 .2 1.4.7 5.4 1 9 .4 3.6.8 7.2 1 8 .2.8.7 4.6 1 8.5.3 3.8.7 8.1 1 9.5.2 1.4.7 5.4.9 9 .3 3.6.8 7.4 1 8.5.2 1.1.7 5.1 1 9 .4 3.8.8 8.1 1 9.5.3 1.4.7 5.2 1.1 8.5.8 7.7 1.5 14.2 2 18 .2 1.6.7 6.3 1.1 10.2.6 6.7.5 7.3-1.2 7.4-1.1 0-2.7.2-3.6.4-.9.2-3.4.6-5.5.9-8.5 1.2-12.4 1.8-24.7 3.7-7 1.1-13.1 1.7-13.4 1.4-.7-.7-.8-1.6-1.7-10.3-.6-6.6-1.1-11.4-2-18.2-.2-1.9-.7-6.2-1-9.5-.4-3.3-.8-7.1-1-8.5-.4-2.3-.7-5.4-2-17.5-1.3-12.4-1.7-16.2-2-18.5-.3-2.3-.8-6.6-2.1-18.5-.3-2.8-.7-6.1-.9-7.5-.2-1.4-.6-5.6-1-9.3-.3-3.7-.8-7.6-.9-8.5-.2-.9-.7-4.9-1-8.7-.4-3.9-.9-8.1-1.1-9.5-.2-1.4-.6-5.6-1-9.3-.3-3.7-.8-7.6-1-8.5-.1-.9-.6-5.1-1-9.2s-.8-8.2-1-9c-.2-.8-.6-4.9-1-9s-.8-8.2-1-9c-.1-.8-.6-4.7-1-8.5-.9-8.9-1.3-12-1.9-17-.3-2.2-.8-6.7-1.1-10-.3-3.3-1-9.4-1.5-13.5s-1.2-10-1.5-13c-.3-3-.8-7.1-1-9-.3-1.9-.7-5.8-1-8.5-.2-2.8-.7-6.6-.9-8.5-.3-1.9-.8-6.2-1.1-9.5-.3-3.3-.8-7.8-1-10-1.2-9.1-1.6-12.3-2-17.5-.3-3-.8-7.2-1-9.3-1.4-10.7-2.4-20-3-26.2-.2-1.7-.5-4.8-.8-7-1.8-12.9-2.2-15.9-3.2-25.5-.4-4.1-.9-8.4-1.1-9.5-.6-3.3-1.9-16.8-1.8-20 0-1.7 1-6.6 2.2-11 1.2-4.4 2.3-9.1 2.6-10.5.2-1.4 1.4-6.6 2.6-11.5 1.2-5 2.4-10 2.6-11.3.4-2.1 15.1-67.6 19.5-87 1.2-5 2.5-9.2 2.9-9.2.5 0 1.1 2.1 1.5 4.7zm181.2 27.3c0 16.6-.2 19-1.6 19.1-.9 0-2.3.2-3.2.4-.8.1-4.1.6-7.1.9-3.1.4-6.4.8-7.4 1-1.1.2-4.1.7-6.9 1-9.6 1.2-13 1.8-13.6 2.2-1.3.7-2.7-2.1-3.3-6.6-.3-2.5-.8-5.6-1-7-.3-1.4-.7-4.3-1.1-6.5-.3-2.2-1-6.9-1.6-10.4-.5-3.5-.8-6.5-.7-6.6.2-.2 2.6-.6 5.3-.9 2.8-.4 7.7-1.1 11-1.6s8.7-1.2 12-1.6c3.3-.3 8-.9 10.5-1.3 9.7-1.4 8.7-3.6 8.7 17.9zm-197.6 583.2c.1.7.1 3.9 0 7l-.1 5.8h260v45H965.2v-26c.1-14.3.2-26 .3-26 .1 0 4.6-.7 10.1-1.4 5.4-.8 11.7-1.8 13.9-2.1 2.2-.3 7.4-1.2 11.5-1.9 4.1-.8 7.8-1.4 8.3-1.5.4-.1.7.5.8 1.1zM325 1106v6h220.5v46H280v-51.8l4.3-.7c2.3-.4 5.4-.8 6.8-1.1 1.5-.2 4.7-.6 7-.9 7.7-1 11.3-1.5 16.4-2.4 2.8-.5 6.2-.9 7.8-1 2.7-.1 2.7 0 2.7 5.9z"/></svg>