<?xml version="1.0" encoding="utf-8"?>
<!-- Generator: Adobe Illustrator 25.0.1, SVG Export Plug-In . SVG Version: 6.00 Build 0)  -->
<svg version="1.1" id="Layer_1" xmlns="http://www.w3.org/2000/svg" xmlns:xlink="http://www.w3.org/1999/xlink" x="0px" y="0px"
	 viewBox="0 0 220 60" style="enable-background:new 0 0 220 60;" xml:space="preserve">
<style type="text/css">
	.st0{fill:none;stroke:#03AAF9;stroke-width:0.75;stroke-miterlimit:10;}
</style>
<g id="Layer_4">
	<polygon class="st0" points="2.2,55.4 2.2,51.5 7.5,50.8 12.2,16.3 6.1,15.4 6.1,11.5 25.4,11.5 33.5,39.2 34.6,44.7 35.5,39.2 
		43,11.5 62.5,11.5 62.5,15.4 55.8,16.3 61.2,50.7 66.4,51.5 66.4,55.4 46.2,55.4 46.2,51.5 51.3,50.8 48.5,25.4 47.2,14.6 
		45.2,23.2 36.2,55.8 29.8,55.8 19.7,25 16.9,14.7 16.3,25.4 13.8,50.8 19.9,51.5 19.9,55.4 	"/>
	<path class="st0" d="M104.7,56.2c-2.8,0.1-5.6-0.5-8.2-1.6c-2.1-1-3.9-2.5-5.2-4.4c-0.7,0.9-1.5,1.7-2.3,2.4
		c-0.9,0.7-1.9,1.4-2.9,1.9c-1.1,0.5-2.2,1-3.4,1.3c-1.3,0.3-2.6,0.5-3.9,0.5s-2.7-0.2-3.9-0.6c-1.2-0.3-2.3-0.9-3.3-1.7
		c-1-0.8-1.8-1.8-2.3-2.9c-0.6-1.3-0.9-2.7-0.9-4.1c0-1.9,0.6-3.7,1.7-5.2c1.2-1.5,2.8-2.6,4.5-3.4c2-0.9,4.2-1.6,6.4-1.9
		c2.5-0.4,4.9-0.7,7.4-0.7V34c0-1-0.1-1.9-0.3-2.9c-0.2-0.7-0.5-1.3-1.1-1.8s-1.2-0.8-1.9-0.9c-1-0.2-2-0.3-3-0.3s-2,0.1-3,0.2
		c-1,0.2-2,0.4-2.9,0.6s-1.8,0.5-2.7,0.8s-1.6,0.6-2.3,0.9l-1.8-4.2c0.8-0.5,1.6-1,2.5-1.4c1.2-0.6,2.4-1.1,3.7-1.5
		c1.5-0.5,3-0.9,4.5-1.2c1.6-0.3,3.1-0.5,4.7-0.5c2,0,4,0.2,5.9,0.7c1.5,0.4,2.9,1.2,3.9,2.4c1.4-1,3-1.8,4.7-2.3
		c1.9-0.5,3.8-0.8,5.8-0.8c8.4,0,12.9,3.9,13.2,11.7c0,1.3,0,2.5,0,3.6c0,0.9-0.1,1.8-0.3,2.7H98c0.1,1.7,0.4,3.3,0.9,4.9
		c0.4,1.2,1.1,2.3,1.9,3.3c0.8,0.8,1.7,1.5,2.8,1.8c1.2,0.4,2.4,0.6,3.6,0.6c1,0,1.9-0.1,2.9-0.2c0.8-0.1,1.7-0.3,2.5-0.6
		c1.3-0.4,2.5-0.9,3.7-1.6l1.6,3.5c-0.7,0.6-1.4,1.1-2.1,1.5c-1,0.6-2,1.1-3.1,1.5c-1.2,0.5-2.5,0.9-3.8,1.2
		C107.5,55.9,106.1,56,104.7,56.2z"/>
	<path class="st0" d="M82.8,50.5c0.7,0,1.3-0.1,1.9-0.3c0.6-0.2,1.3-0.4,1.8-0.7c0.6-0.3,1.2-0.6,1.7-1s1-0.8,1.4-1.2
		c-0.5-1.2-0.9-2.5-1.1-3.9s-0.4-2.9-0.3-4.3l0,0c-1.6,0-3.3,0.1-4.9,0.5c-1.1,0.2-2.2,0.7-3.2,1.3c-0.7,0.5-1.3,1.2-1.7,2
		c-0.4,0.7-0.5,1.5-0.5,2.4c-0.1,1.4,0.3,2.8,1.2,3.9C80.1,50.2,81.4,50.7,82.8,50.5z"/>
	<path class="st0" d="M103.9,25.6c-0.8,0-1.5,0.1-2.2,0.4c-0.7,0.3-1.4,0.8-1.8,1.5c-0.6,1-1,2-1.3,3.1c-0.4,1.7-0.6,3.5-0.6,5.2h11
		c0-0.1,0-0.2,0-0.4c0-0.2,0-0.4,0-0.6s0-0.4,0-0.6v-0.4c0-1-0.1-2-0.2-3c-0.1-0.9-0.4-1.9-0.8-2.7s-0.9-1.4-1.6-1.9
		C105.7,25.9,104.8,25.6,103.9,25.6z"/>
	<polygon class="st0" points="121.1,55.4 121.1,52 124.8,51.3 134.4,38.8 125.1,26.9 121.8,26.1 121.8,22.4 140.1,22.4 140.1,26 
		136.1,26.9 140.4,32.8 142.4,35.8 143.8,32.8 148.4,26.9 144.4,26 144.4,22.4 157.8,22.4 157.8,26 154.2,26.9 145.3,38.7 
		155.2,51.3 158.5,52 158.5,55.4 140.2,55.4 140.2,52 144,51.3 139.1,44.4 137.3,41.7 135.9,44.7 131.3,51.3 135.6,52 135.6,55.4 	
		"/>
	<path class="st0" d="M160.6,46.7c0-1.3,0.3-2.6,0.8-3.7c0.5-1.1,1.3-2.1,2.2-2.9c1-0.9,2.1-1.6,3.4-2.1c1.3-0.6,2.7-1.1,4.2-1.4
		c1.5-0.4,3.1-0.7,4.6-0.8c1.6-0.2,3.2-0.3,4.8-0.3V34c0-2.2-0.5-3.8-1.4-4.7s-2.5-1.4-4.7-1.4c-1.1,0-2.2,0.1-3.3,0.2
		c-1.1,0.2-2.2,0.4-3.2,0.6c-1,0.2-1.9,0.5-2.8,0.8c-0.9,0.3-1.6,0.6-2.2,0.8l0,0l-1.8-3.9c0.7-0.5,1.4-0.9,2.2-1.3
		c1.2-0.6,2.4-1.1,3.6-1.5c1.6-0.5,3.1-1,4.7-1.3c1.8-0.4,3.6-0.6,5.4-0.6c1.9,0,3.9,0.2,5.8,0.7c1.4,0.4,2.8,1.1,3.9,2.1
		c1,1,1.8,2.3,2.2,3.6c0.5,1.7,0.7,3.4,0.7,5.2v18h3.8v3.6l-1.4,0.3c-0.6,0.1-1.2,0.2-1.9,0.3s-1.4,0.2-2.2,0.3s-1.6,0.1-2.4,0.1
		c-0.6,0-1.3,0-1.9-0.1c-0.4,0-0.9-0.2-1.2-0.4c-0.3-0.2-0.6-0.5-0.7-0.9c-0.2-0.5-0.2-1.1-0.2-1.6v-1.5c-0.4,0.5-0.9,1-1.5,1.5
		c-0.7,0.6-1.4,1.1-2.2,1.5c-0.9,0.5-1.9,0.9-2.9,1.2c-1.2,0.3-2.4,0.5-3.6,0.5c-1.4,0-2.7-0.2-4.1-0.6c-1.2-0.3-2.3-0.9-3.3-1.7
		c-1-0.8-1.7-1.8-2.2-3C160.8,49.7,160.6,48.2,160.6,46.7z"/>
	<path class="st0" d="M175.1,50.5c0.4,0,0.8,0,1.2-0.1c0.5-0.1,1-0.2,1.5-0.4c0.5-0.2,1-0.4,1.5-0.6s0.9-0.5,1.3-0.8v-9.5
		c-1.7,0-3.4,0.1-5,0.5c-1.1,0.3-2.2,0.8-3.2,1.4c-0.7,0.5-1.3,1.2-1.7,2c-0.3,0.8-0.5,1.6-0.5,2.4c-0.1,1.4,0.3,2.8,1.2,3.9
		C172.5,50.2,173.8,50.7,175.1,50.5z"/>
	<polygon class="st0" points="196.1,55.4 196.1,51.5 200.6,51 200.6,12.5 196,11.7 196,8.4 208,7 208.1,7 210,8.3 210,51 
		214.6,51.5 214.6,55.4 	"/>
</g>
</svg>
