<?xml version="1.0" encoding="utf-8"?>
<!-- Generator: Adobe Illustrator 25.0.1, SVG Export Plug-In . SVG Version: 6.00 Build 0)  -->
<svg version="1.1" id="Layer_1" xmlns="http://www.w3.org/2000/svg" xmlns:xlink="http://www.w3.org/1999/xlink" x="0px" y="0px"
	 viewBox="0 0 215 52" style="enable-background:new 0 0 215 52;" xml:space="preserve">
<style type="text/css">
	.st0{fill:#03AAF9;}
</style>
<g id="Layer_4">
	<path class="st0" d="M1.3,49.9v-4l5.4-0.8l4.7-34.4L5.2,9.8V6h19.3l8.2,27.7l1.1,5.3l0.9-5.3L42.3,6h19.4v3.9l-6.6,0.9l5.2,34.3
		l5.3,0.8v4H45.3v-4l5.1-0.8l-2.8-25.3L46.3,9.1l-1.9,8.6l-9,32.6h-6.5l-10-30.9L16,9.2l-0.5,10.6l-2.6,25.4L19,46v4L1.3,49.9z"/>
	<path class="st0" d="M103.8,50.5c-2.8,0.1-5.6-0.5-8.2-1.6c-2.1-1-3.9-2.5-5.2-4.4c-0.7,0.9-1.5,1.7-2.3,2.4
		c-0.9,0.7-1.9,1.4-2.9,1.9c-1.1,0.5-2.2,1-3.4,1.3c-1.3,0.3-2.6,0.5-3.9,0.5S75.2,50.4,74,50c-1.2-0.3-2.3-0.9-3.3-1.7
		c-1-0.8-1.8-1.8-2.3-2.9c-0.6-1.3-0.9-2.7-0.9-4.1c-0.1-1.9,0.5-3.7,1.7-5.2s2.8-2.7,4.5-3.5c2-0.9,4.2-1.6,6.4-1.9
		c2.5-0.4,4.9-0.7,7.4-0.7v-1.7c0-1-0.1-1.9-0.3-2.9c-0.2-0.7-0.5-1.3-1.1-1.8s-1.2-0.8-1.9-0.9c-1-0.2-1.9-0.3-2.9-0.3
		s-2,0.1-3,0.2c-1,0.2-2,0.4-2.9,0.6s-1.8,0.5-2.6,0.8s-1.6,0.6-2.3,0.9l-1.8-4.2c0.8-0.6,1.6-1.1,2.5-1.4c1.2-0.6,2.4-1,3.7-1.4
		c1.5-0.5,3-0.9,4.5-1.1c1.6-0.3,3.1-0.5,4.7-0.5c2,0,4,0.2,5.9,0.7c1.5,0.4,2.9,1.2,3.9,2.3c1.4-1,3-1.8,4.7-2.3
		c1.9-0.5,3.8-0.8,5.8-0.8c8.4,0,12.9,3.9,13.2,11.7c0,1.3,0,2.5,0,3.6c0,0.9-0.1,1.8-0.3,2.7h-20c0.1,1.7,0.4,3.3,0.9,4.9
		c0.4,1.2,1,2.3,1.9,3.3c0.8,0.8,1.7,1.5,2.8,1.8c1.2,0.4,2.4,0.6,3.6,0.6c1,0,1.9-0.1,2.9-0.2c0.8-0.1,1.7-0.3,2.5-0.6
		c1.3-0.4,2.5-0.9,3.7-1.6l1.6,3.5c-0.6,0.6-1.3,1.1-2.1,1.6c-1,0.6-2,1.1-3.1,1.5c-1.2,0.5-2.5,0.9-3.8,1.2
		C106.6,50.4,105.2,50.5,103.8,50.5z M81.9,45c0.7,0,1.3-0.1,1.9-0.3c0.6-0.2,1.3-0.4,1.9-0.7c0.6-0.3,1.2-0.6,1.7-1s1-0.8,1.5-1.3
		c-0.5-1.2-0.9-2.5-1.1-3.9s-0.4-2.9-0.3-4.3l0,0c-1.6,0-3.3,0.1-4.9,0.5c-1.1,0.3-2.2,0.7-3.2,1.4c-0.7,0.5-1.3,1.2-1.7,2
		c-0.4,0.7-0.5,1.5-0.5,2.4c-0.1,1.4,0.3,2.7,1.2,3.8C79.2,44.6,80.6,45.1,81.9,45z M103,20.1c-0.8,0-1.5,0.1-2.2,0.4
		S99.4,21.3,99,22c-0.6,1-1,2-1.3,3.1c-0.4,1.7-0.6,3.4-0.6,5.2h11c0-0.1,0-0.2,0-0.4s0-0.3,0-0.5s0-0.4,0-0.6v-0.4c0-1-0.1-2-0.2-3
		c-0.1-0.9-0.4-1.8-0.8-2.7c-0.4-0.8-0.9-1.4-1.6-1.9S103.9,20.1,103,20.1L103,20.1z"/>
	<path class="st0" d="M120.2,49.9v-3.4l3.7-0.7l9.6-12.6l-9.2-11.8l-3.4-0.8v-3.7h18.3v3.7l-4,0.8l4.4,5.9l2,3l1.3-2.8l4.6-6l-4-0.8
		V17h13.4v3.7l-3.6,0.8l-8.9,11.6l9.9,12.7l3.2,0.7v3.4h-18.3v-3.4l3.7-0.7l-4.8-6.8l-1.8-2.8l-1.4,3l-4.6,6.7l4.3,0.7V50
		L120.2,49.9z"/>
	<path class="st0" d="M159.7,41.1c0-1.3,0.3-2.6,0.8-3.8c0.5-1.1,1.3-2.1,2.2-2.9c1-0.9,2.1-1.6,3.3-2.1c1.3-0.6,2.7-1.1,4.2-1.4
		c1.5-0.4,3.1-0.7,4.6-0.8c1.6-0.2,3.2-0.3,4.8-0.3v-1.4c0-2.2-0.5-3.8-1.4-4.7s-2.5-1.4-4.7-1.4c-1.1,0-2.2,0.1-3.3,0.2
		c-1.1,0.2-2.2,0.4-3.2,0.6s-1.9,0.5-2.8,0.8c-0.9,0.3-1.6,0.6-2.2,0.8l0,0l-1.8-3.9c0.7-0.5,1.4-0.9,2.2-1.3
		c1.2-0.6,2.4-1.1,3.7-1.6c1.6-0.5,3.1-1,4.7-1.3c1.8-0.4,3.6-0.6,5.4-0.5c1.9,0,3.9,0.2,5.8,0.7c1.4,0.4,2.8,1.1,3.9,2.1
		c1,1,1.8,2.3,2.2,3.7c0.5,1.7,0.7,3.4,0.7,5.2v18h3.8v3.5l-1.4,0.3c-0.6,0.1-1.2,0.2-1.9,0.3s-1.4,0.2-2.2,0.3s-1.6,0.1-2.4,0.1
		c-0.6,0-1.3,0-1.9-0.1c-0.4,0-0.9-0.2-1.2-0.4c-0.3-0.2-0.6-0.5-0.7-0.9c-0.2-0.5-0.2-1.1-0.2-1.6v-1.7c-0.4,0.5-0.9,1-1.4,1.5
		c-0.7,0.6-1.4,1.1-2.2,1.5c-1,0.5-2,0.9-3,1.2c-1.2,0.3-2.4,0.5-3.6,0.5c-1.4,0-2.7-0.2-4.1-0.6c-1.2-0.3-2.3-0.9-3.3-1.7
		c-1-0.8-1.7-1.8-2.2-2.9C159.9,44,159.7,42.6,159.7,41.1z M174.2,45c0.4,0,0.8-0.1,1.2-0.1c0.5-0.1,1-0.2,1.5-0.4
		c0.5-0.2,1-0.4,1.5-0.6c0.5-0.2,0.9-0.5,1.3-0.8v-9.5c-1.7,0-3.4,0.1-5,0.5c-1.1,0.3-2.2,0.7-3.2,1.4c-0.7,0.5-1.3,1.2-1.7,2
		c-0.3,0.8-0.5,1.6-0.5,2.4c-0.1,1.4,0.3,2.8,1.2,3.9C171.6,44.6,172.9,45.1,174.2,45z"/>
	<path class="st0" d="M195.3,49.9V46l4.4-0.6V6.9l-4.6-0.7V2.8l12-1.4h0.1l1.9,1.4v42.6l4.6,0.6v3.9H195.3z"/>
</g>
</svg>
