<?xml version="1.0" encoding="utf-8"?>
<!-- Generator: Adobe Illustrator 25.0.1, SVG Export Plug-In . SVG Version: 6.00 Build 0)  -->
<svg version="1.1" id="Layer_1" xmlns="http://www.w3.org/2000/svg" xmlns:xlink="http://www.w3.org/1999/xlink" x="0px" y="0px"
	 viewBox="0 0 220 60" style="enable-background:new 0 0 220 60;" xml:space="preserve">
<style type="text/css">
	.st0{fill:#03AAF9;}
</style>
<g id="Layer_4">
	<path class="st0" d="M5.4,52.2v-4l5.4-0.8L15.5,13l-6.2-0.9V8.3h19.3L36.8,36l1.1,5.3l0.9-5.3l7.6-27.7h19.4v3.9l-6.6,0.9l5.2,34.3
		l5.3,0.8v4H49.4v-4l5.1-0.8l-2.8-25.3l-1.3-10.7L48.5,20l-9,32.6H33L23,21.7l-2.9-10.2l-0.5,10.6L17,47.5l6.1,0.8v4L5.4,52.2z"/>
	<path class="st0" d="M107.9,52.8c-2.8,0.1-5.6-0.5-8.2-1.6c-2.1-1-3.9-2.5-5.2-4.4c-0.7,0.9-1.5,1.7-2.3,2.4
		c-0.9,0.7-1.9,1.4-2.9,1.9c-1.1,0.5-2.2,1-3.4,1.3C84.6,52.8,83.3,53,82,53s-2.7-0.2-3.9-0.6c-1.2-0.3-2.3-0.9-3.3-1.7
		c-1-0.8-1.8-1.8-2.3-2.9c-0.6-1.3-0.9-2.7-0.9-4.1c-0.1-1.9,0.5-3.7,1.7-5.2s2.8-2.7,4.5-3.5c2-0.9,4.2-1.6,6.4-1.9
		c2.5-0.4,4.9-0.7,7.4-0.7v-1.7c0-1-0.1-1.9-0.3-2.9c-0.2-0.7-0.5-1.3-1.1-1.8S89,25.1,88.3,25c-1-0.2-1.9-0.3-2.9-0.3s-2,0.1-3,0.2
		c-1,0.2-2,0.4-2.9,0.6c-0.9,0.2-1.8,0.5-2.6,0.8s-1.6,0.6-2.3,0.9L72.8,23c0.8-0.6,1.6-1.1,2.5-1.4c1.2-0.6,2.4-1,3.7-1.4
		c1.5-0.5,3-0.9,4.5-1.1c1.6-0.3,3.1-0.5,4.7-0.5c2,0,4,0.2,5.9,0.7c1.5,0.4,2.9,1.2,3.9,2.3c1.4-1,3-1.8,4.7-2.3
		c1.9-0.5,3.8-0.8,5.8-0.8c8.4,0,12.9,3.9,13.2,11.7c0,1.3,0,2.5,0,3.6c0,0.9-0.1,1.8-0.3,2.7h-20c0.1,1.7,0.4,3.3,0.9,4.9
		c0.4,1.2,1,2.3,1.9,3.3c0.8,0.8,1.7,1.5,2.8,1.8c1.2,0.4,2.4,0.6,3.6,0.6c1,0,1.9-0.1,2.9-0.2c0.8-0.1,1.7-0.3,2.5-0.6
		c1.3-0.4,2.5-0.9,3.7-1.6l1.6,3.5c-0.6,0.6-1.3,1.1-2.1,1.6c-1,0.6-2,1.1-3.1,1.5c-1.2,0.5-2.5,0.9-3.8,1.2
		C110.7,52.8,109.3,52.8,107.9,52.8z M86,47.3c0.7,0,1.3-0.1,1.9-0.3c0.6-0.2,1.3-0.4,1.9-0.7c0.6-0.3,1.2-0.6,1.7-1s1-0.8,1.5-1.3
		c-0.5-1.2-0.9-2.5-1.1-3.9s-0.4-2.9-0.3-4.3l0,0c-1.6,0-3.3,0.1-4.9,0.5c-1.1,0.3-2.2,0.7-3.2,1.4c-0.7,0.5-1.3,1.2-1.7,2
		c-0.4,0.7-0.5,1.5-0.5,2.4c-0.1,1.4,0.3,2.7,1.2,3.8C83.3,46.9,84.7,47.4,86,47.3z M107.1,22.4c-0.8,0-1.5,0.1-2.2,0.4
		s-1.4,0.8-1.8,1.5c-0.6,1-1,2-1.3,3.1c-0.4,1.7-0.6,3.4-0.6,5.2h11c0-0.1,0-0.2,0-0.4c0-0.2,0-0.3,0-0.5s0-0.4,0-0.6v-0.4
		c0-1-0.1-2-0.2-3c-0.1-0.9-0.4-1.8-0.8-2.7c-0.4-0.8-0.9-1.4-1.6-1.9C108.9,22.6,108,22.4,107.1,22.4L107.1,22.4z"/>
	<path class="st0" d="M124.3,52.2v-3.4l3.7-0.7l9.6-12.6l-9.2-11.8l-3.4-0.8v-3.7h18.3v3.7l-4,0.8l4.4,5.9l2,3l1.3-2.8l4.6-6l-4-0.8
		v-3.7H161v3.7l-3.6,0.8l-8.9,11.6l9.9,12.7l3.2,0.7v3.4h-18.3v-3.4l3.7-0.7l-4.8-6.8l-1.8-2.8l-1.4,3l-4.6,6.7l4.3,0.7v3.4
		L124.3,52.2z"/>
	<path class="st0" d="M163.8,43.4c0-1.3,0.3-2.6,0.8-3.8c0.5-1.1,1.3-2.1,2.2-2.9c1-0.9,2.1-1.6,3.3-2.1c1.3-0.6,2.7-1.1,4.2-1.4
		c1.5-0.4,3.1-0.7,4.6-0.8c1.6-0.2,3.2-0.3,4.8-0.3v-1.4c0-2.2-0.5-3.8-1.4-4.7s-2.5-1.4-4.7-1.4c-1.1,0-2.2,0.1-3.3,0.2
		c-1.1,0.2-2.2,0.4-3.2,0.6c-1,0.2-1.9,0.5-2.8,0.8c-0.9,0.3-1.6,0.6-2.2,0.8l0,0l-1.8-3.9c0.7-0.5,1.4-0.9,2.2-1.3
		c1.2-0.6,2.4-1.1,3.7-1.6c1.6-0.5,3.1-1,4.7-1.3c1.8-0.4,3.6-0.6,5.4-0.5c1.9,0,3.9,0.2,5.8,0.7c1.4,0.4,2.8,1.1,3.9,2.1
		c1,1,1.8,2.3,2.2,3.7c0.5,1.7,0.7,3.4,0.7,5.2v18h3.8v3.5l-1.4,0.3c-0.6,0.1-1.2,0.2-1.9,0.3s-1.4,0.2-2.2,0.3s-1.6,0.1-2.4,0.1
		c-0.6,0-1.3,0-1.9-0.1c-0.4,0-0.9-0.2-1.2-0.4c-0.3-0.2-0.6-0.5-0.7-0.9c-0.2-0.5-0.2-1.1-0.2-1.6v-1.7c-0.4,0.5-0.9,1-1.4,1.5
		c-0.7,0.6-1.4,1.1-2.2,1.5c-1,0.5-2,0.9-3,1.2c-1.2,0.3-2.4,0.5-3.6,0.5c-1.4,0-2.7-0.2-4.1-0.6c-1.2-0.3-2.3-0.9-3.3-1.7
		c-1-0.8-1.7-1.8-2.2-2.9C164,46.3,163.8,44.9,163.8,43.4z M178.3,47.3c0.4,0,0.8-0.1,1.2-0.1c0.5-0.1,1-0.2,1.5-0.4
		c0.5-0.2,1-0.4,1.5-0.6s0.9-0.5,1.3-0.8V36c-1.7,0-3.4,0.1-5,0.5c-1.1,0.3-2.2,0.7-3.2,1.4c-0.7,0.5-1.3,1.2-1.7,2
		c-0.3,0.8-0.5,1.6-0.5,2.4c-0.1,1.4,0.3,2.8,1.2,3.9C175.7,46.9,177,47.4,178.3,47.3z"/>
	<path class="st0" d="M199.4,52.2v-3.9l4.4-0.6V9.2l-4.6-0.7V5.1l12-1.4h0.1l1.9,1.4v42.6l4.6,0.6v3.9L199.4,52.2z"/>
</g>
</svg>
