<?xml version="1.0" encoding="utf-8"?>
<!-- Generator: Adobe Illustrator 25.0.1, SVG Export Plug-In . SVG Version: 6.00 Build 0)  -->
<svg version="1.1" id="Layer_1" xmlns="http://www.w3.org/2000/svg" xmlns:xlink="http://www.w3.org/1999/xlink" x="0px" y="0px"
	 viewBox="0 0 215 52" style="enable-background:new 0 0 215 52;" xml:space="preserve">
<style type="text/css">
	.st0{fill:none;stroke:#03AAF9;stroke-width:0.75;stroke-miterlimit:10;}
</style>
<g id="Layer_4">
	<polygon class="st0" points="1.3,49.8 1.3,45.9 6.6,45.1 11.3,10.7 5.2,9.8 5.2,5.9 24.5,5.9 32.6,33.6 33.7,39 34.6,33.6 
		42.1,5.9 61.6,5.9 61.6,9.8 54.9,10.7 60.3,45 65.5,45.9 65.5,49.8 45.3,49.8 45.3,45.9 50.4,45.1 47.6,19.8 46.3,9 44.3,17.6 
		35.3,50.2 28.9,50.2 18.8,19.4 16,9.1 15.4,19.8 12.9,45.1 19,45.9 19,49.8 	"/>
	<path class="st0" d="M103.8,50.5c-2.8,0.1-5.6-0.5-8.2-1.6c-2.1-1-3.9-2.5-5.2-4.4c-0.7,0.9-1.5,1.7-2.3,2.4
		c-0.9,0.7-1.9,1.4-2.9,1.9c-1.1,0.5-2.2,1-3.4,1.3c-1.3,0.3-2.6,0.5-3.9,0.5S75.2,50.4,74,50c-1.2-0.3-2.3-0.9-3.3-1.7
		c-1-0.8-1.8-1.8-2.3-2.9c-0.6-1.3-0.9-2.7-0.9-4.1c0-1.9,0.6-3.7,1.7-5.2c1.2-1.5,2.8-2.6,4.5-3.4c2-0.9,4.2-1.6,6.4-1.9
		c2.5-0.4,4.9-0.7,7.4-0.7v-1.7c0-1-0.1-1.9-0.3-2.9c-0.2-0.7-0.5-1.3-1.1-1.8s-1.2-0.8-1.9-0.9c-1-0.2-2-0.3-3-0.3s-2,0.1-3,0.2
		c-1,0.2-2,0.4-2.9,0.6s-1.8,0.5-2.7,0.8S71,24.7,70.3,25l-1.8-4.2c0.8-0.5,1.6-1,2.5-1.4c1.2-0.6,2.4-1.1,3.7-1.5
		c1.5-0.5,3-0.9,4.5-1.2c1.6-0.3,3.1-0.5,4.7-0.5c2,0,4,0.2,5.9,0.7c1.5,0.4,2.9,1.2,3.9,2.4c1.4-1,3-1.8,4.7-2.3
		c1.9-0.5,3.8-0.8,5.8-0.8c8.4,0,12.9,3.9,13.2,11.7c0,1.3,0,2.5,0,3.6c0,0.9-0.1,1.8-0.3,2.7h-20c0.1,1.7,0.4,3.3,0.9,4.9
		c0.4,1.2,1.1,2.3,1.9,3.3c0.8,0.8,1.7,1.5,2.8,1.8c1.2,0.4,2.4,0.6,3.6,0.6c1,0,1.9-0.1,2.9-0.2c0.8-0.1,1.7-0.3,2.5-0.6
		c1.3-0.4,2.5-0.9,3.7-1.6l1.6,3.5c-0.7,0.6-1.4,1.1-2.1,1.5c-1,0.6-2,1.1-3.1,1.5c-1.2,0.5-2.5,0.9-3.8,1.2
		C106.6,50.3,105.2,50.4,103.8,50.5z"/>
	<path class="st0" d="M81.9,44.9c0.7,0,1.3-0.1,1.9-0.3c0.6-0.2,1.3-0.4,1.8-0.7c0.6-0.3,1.2-0.6,1.7-1s1-0.8,1.4-1.2
		c-0.5-1.2-0.9-2.5-1.1-3.9s-0.4-2.9-0.3-4.3l0,0c-1.6,0-3.3,0.1-4.9,0.5c-1.1,0.2-2.2,0.7-3.2,1.3c-0.7,0.5-1.3,1.2-1.7,2
		C77.1,38,77,38.8,77,39.7c-0.1,1.4,0.3,2.8,1.2,3.9C79.2,44.5,80.5,45,81.9,44.9z"/>
	<path class="st0" d="M103,20c-0.8,0-1.5,0.1-2.2,0.4s-1.4,0.8-1.8,1.5c-0.6,1-1,2-1.3,3.1c-0.4,1.7-0.6,3.5-0.6,5.2h11
		c0-0.1,0-0.2,0-0.4s0-0.4,0-0.6s0-0.4,0-0.6v-0.4c0-1-0.1-2-0.2-3c-0.1-0.9-0.4-1.9-0.8-2.7c-0.4-0.8-0.9-1.4-1.6-1.9
		C104.8,20.2,103.9,20,103,20z"/>
	<polygon class="st0" points="120.2,49.8 120.2,46.4 123.9,45.7 133.5,33.1 124.2,21.2 120.9,20.5 120.9,16.8 139.2,16.8 
		139.2,20.4 135.2,21.2 139.5,27.1 141.5,30.1 142.9,27.2 147.5,21.2 143.5,20.4 143.5,16.8 156.9,16.8 156.9,20.4 153.3,21.2 
		144.4,33 154.3,45.7 157.6,46.4 157.6,49.8 139.3,49.8 139.3,46.4 143.1,45.7 138.2,38.8 136.4,36 135,39 130.4,45.7 134.7,46.4 
		134.7,49.8 	"/>
	<path class="st0" d="M159.7,41c0-1.3,0.3-2.6,0.8-3.7c0.5-1.1,1.3-2.1,2.2-2.9c1-0.9,2.1-1.6,3.4-2.1c1.3-0.6,2.7-1.1,4.2-1.4
		c1.5-0.4,3.1-0.7,4.6-0.8c1.6-0.2,3.2-0.3,4.8-0.3v-1.4c0-2.2-0.5-3.8-1.4-4.7s-2.5-1.4-4.7-1.4c-1.1,0-2.2,0.1-3.3,0.2
		c-1.1,0.2-2.2,0.4-3.2,0.6s-1.9,0.5-2.8,0.8c-0.9,0.3-1.6,0.6-2.2,0.8l0,0l-1.8-3.9c0.7-0.5,1.4-0.9,2.2-1.3
		c1.2-0.6,2.4-1.1,3.6-1.5c1.6-0.5,3.1-1,4.7-1.3c1.8-0.4,3.6-0.6,5.4-0.6c1.9,0,3.9,0.2,5.8,0.7c1.4,0.4,2.8,1.1,3.9,2.1
		c1,1,1.8,2.3,2.2,3.6c0.5,1.7,0.7,3.4,0.7,5.2v18h3.8v3.6l-1.4,0.3c-0.6,0.1-1.2,0.2-1.9,0.3s-1.4,0.2-2.2,0.3s-1.6,0.1-2.4,0.1
		c-0.6,0-1.3,0-1.9-0.1c-0.4,0-0.9-0.2-1.2-0.4c-0.3-0.2-0.6-0.5-0.7-0.9c-0.2-0.5-0.2-1.1-0.2-1.6v-1.5c-0.4,0.5-0.9,1-1.5,1.5
		c-0.7,0.6-1.4,1.1-2.2,1.5c-0.9,0.5-1.9,0.9-2.9,1.2c-1.2,0.3-2.4,0.5-3.6,0.5c-1.4,0-2.7-0.2-4.1-0.6c-1.2-0.3-2.3-0.9-3.3-1.7
		c-1-0.8-1.7-1.8-2.2-3C159.9,44,159.7,42.5,159.7,41z"/>
	<path class="st0" d="M174.2,44.9c0.4,0,0.8,0,1.2-0.1c0.5-0.1,1-0.2,1.5-0.4c0.5-0.2,1-0.4,1.5-0.6c0.5-0.2,0.9-0.5,1.3-0.8v-9.5
		c-1.7,0-3.4,0.1-5,0.5c-1.1,0.3-2.2,0.8-3.2,1.4c-0.7,0.5-1.3,1.2-1.7,2c-0.3,0.8-0.5,1.6-0.5,2.4c-0.1,1.4,0.3,2.8,1.2,3.9
		C171.6,44.5,172.9,45,174.2,44.9z"/>
	<polygon class="st0" points="195.2,49.8 195.2,45.9 199.7,45.4 199.7,6.9 195.1,6.1 195.1,2.8 207.1,1.4 207.2,1.4 209.1,2.7 
		209.1,45.4 213.7,45.9 213.7,49.8 	"/>
</g>
</svg>
